<?xml version="1.0" standalone="no"?><!DOCTYPE svg PUBLIC "-//W3C//DTD SVG 1.1//EN" "http://www.w3.org/Graphics/SVG/1.1/DTD/svg11.dtd"><svg class="icon" width="32px" height="32.00px" viewBox="0 0 1024 1024" version="1.1" xmlns="http://www.w3.org/2000/svg"><path d="M959.362737 598.534555 959.362737 0 0.491116 0l0 894.856912 547.503781 0.09325c44.161366 75.657622 126.199056 126.501008 220.121221 126.501008 140.671437 0 254.707157-114.036608 254.707157-254.708933C1022.823275 702.270159 998.857169 643.402843 959.362737 598.534555zM913.187174 42.379849l0 166.971455L42.870965 209.351305 42.870965 42.379849 913.187174 42.379849zM42.870965 849.577435 42.870965 253.322618l870.316208 0 0 304.055881c-41.167601-28.579755-91.158416-45.345195-145.071055-45.345195-140.671437 0-254.708045 114.036608-254.708045 254.707157 0 28.999824 4.856986 56.863776 13.784996 82.834311L42.870965 849.574771 42.870965 849.577435zM768.116118 977.797794c-116.652933 0-211.556442-94.903509-211.556442-211.556442 0-116.652045 94.903509-211.555554 211.556442-211.555554 70.6168 0 133.254964 34.785757 171.702332 88.114918l-171.850644 175.691651L668.792565 721.679455l-32.598381 33.270668 132.44591 129.412181 194.73594-199.517439c10.490167 25.06912 16.295638 52.567176 16.295638 81.397374C979.670784 882.894285 884.768163 977.797794 768.116118 977.797794z"  /><path d="M132.365093 380.951506l43.972202 0 0 191.976632-43.972202 0 0-191.976632Z"  /><path d="M271.883785 380.951506l43.972202 0 0 191.976632-43.972202 0 0-191.976632Z"  /><path d="M407.847435 380.951506l43.972202 0 0 191.976632-43.972202 0 0-191.976632Z"  /></svg>